<svg width="16" height="16" viewBox="0 0 16 16" fill="none" xmlns="http://www.w3.org/2000/svg">
<g clip-path="url(#clip0)">
<path d="M0.639946 6.4L0.319946 4.8L13.1199 3.2L13.4399 4.8L0.639946 6.4Z" fill="#363636"/>
<rect x="4.48013" y="10.88" width="9.6" height="1.92" fill="#363636"/>
<path d="M15.1992 5.43633H13.6638L13.2328 2.18456C13.1711 1.74797 12.7702 1.44186 12.3328 1.49743L0.694833 3.0398C0.483925 3.06808 0.292931 3.17916 0.164078 3.34854C0.0346582 3.51678 -0.0218463 3.72989 0.00717311 3.94013L0.989163 11.3459C1.04133 11.7447 1.38133 12.0429 1.78356 12.0426C1.81802 12.0426 1.85241 12.0402 1.88656 12.0357L2.65748 11.934V13.7085C2.65748 14.1507 3.01589 14.5091 3.45801 14.5091H15.1992C15.6413 14.5091 15.9997 14.1507 15.9997 13.7085V6.23687C15.9997 5.79474 15.6413 5.43633 15.1992 5.43633ZM13.1255 5.43633H11.0418L13.0895 5.16495L13.1255 5.43633ZM0.535527 3.86809C0.526154 3.79844 0.545166 3.72793 0.588362 3.67249C0.631291 3.61542 0.6953 3.57793 0.766081 3.56842L12.4019 2.02659C12.5482 2.00804 12.6824 2.11011 12.7037 2.25607L12.8091 3.05074L0.64093 4.66435L0.535527 3.86809ZM2.65748 11.3958L1.81798 11.5065C1.67189 11.5259 1.53773 11.4232 1.51832 11.2771C1.51832 11.2771 1.51832 11.2771 1.51832 11.277L0.922986 6.77857L2.65748 6.54935V11.3958ZM2.6927 6.00658L0.851471 6.24941L0.711377 5.19377L12.8795 3.57989L12.9596 4.1915L13.0188 4.6358L6.98037 5.43633H3.45801C3.10511 5.43697 2.79424 5.66859 2.6927 6.00658ZM15.466 13.7085C15.466 13.8559 15.3466 13.9754 15.1992 13.9754H3.45801C3.31065 13.9754 3.19117 13.8559 3.19117 13.7085V6.24487C3.19117 6.24221 3.1925 6.23954 3.1925 6.23687C3.1925 6.0895 3.31198 5.97003 3.45935 5.97003H15.1992C15.3466 5.97003 15.466 6.0895 15.466 6.23687V13.7085Z" fill="#363636"/>
<path d="M11.7161 9.44517C11.8233 9.36599 11.9182 9.27119 11.9973 9.16392C12.4361 9.75448 13.2705 9.87756 13.861 9.4388C14.4516 9.00008 14.5747 8.16565 14.1359 7.57509C13.8842 7.23627 13.4868 7.0368 13.0647 7.0374C12.6431 7.03857 12.2471 7.23967 11.9973 7.57936C11.5598 6.98647 10.7244 6.86055 10.1315 7.29811C9.53862 7.73567 9.4127 8.57099 9.85026 9.16392C10.2878 9.75678 11.1232 9.88273 11.7161 9.44517ZM13.0647 7.57109C13.5068 7.57109 13.8652 7.9295 13.8652 8.37162C13.8652 8.81375 13.5068 9.17216 13.0647 9.17216C12.6226 9.17216 12.2642 8.81375 12.2642 8.37162C12.2642 7.9295 12.6226 7.57109 13.0647 7.57109ZM10.9299 7.57109C11.3721 7.57109 11.7305 7.9295 11.7305 8.37162C11.7305 8.81375 11.3721 9.17216 10.9299 9.17216C10.4878 9.17216 10.1294 8.81375 10.1294 8.37162C10.1294 7.9295 10.4878 7.57109 10.9299 7.57109Z" fill="#363636"/>
<path d="M4.79208 7.30424H4.25839V7.83794H4.79208V7.30424Z" fill="#363636"/>
<path d="M8.52783 7.30424H5.32568V7.83794H8.52783V7.30424Z" fill="#363636"/>
<path d="M8.52792 8.37163H4.25839V8.90533H8.52792V8.37163Z" fill="#363636"/>
<path d="M14.1317 10.7732H4.52524C4.37787 10.7732 4.25839 10.8927 4.25839 11.0401V12.6412C4.25839 12.7885 4.37787 12.908 4.52524 12.908H14.1317C14.279 12.908 14.3985 12.7885 14.3985 12.6412V11.0401C14.3985 10.8927 14.2791 10.7732 14.1317 10.7732ZM13.8648 12.3743H4.79208V11.3069H13.8648V12.3743Z" fill="#363636"/>
</g>
<defs>
<clipPath id="clip0">
<rect width="16" height="16" fill="white"/>
</clipPath>
</defs>
</svg>
