<svg xmlns="http://www.w3.org/2000/svg" viewBox="0 0 971.89 150.72"><defs><style>.cls-1{fill:#ffffff;}</style></defs><title>logo_black</title><g id="Слой_2" data-name="Слой 2"><g id="Слой_1-2" data-name="Слой 1"><path class="cls-1" d="M117.12,3.46a9.61,9.61,0,0,1,2.69,7.1V96a9.7,9.7,0,0,1-2.69,7A10.34,10.34,0,0,1,103,103a9.5,9.5,0,0,1-2.79-7V34.75L69.89,77.57q-4.61,6.72-10.37,6.72-5.57,0-10.18-6.72L19.58,34.75V96a9.69,9.69,0,0,1-2.68,7,9.42,9.42,0,0,1-7.11,2.78A9.51,9.51,0,0,1,0,96V10.56a9.44,9.44,0,0,1,2.78-7.1,9.7,9.7,0,0,1,7-2.69q6.15,0,10.37,5.95L59.9,64.13,99.65,6.72Q103.86.76,110,.77a9.61,9.61,0,0,1,7.1,2.69"/><path class="cls-1" d="M219.16,7a51.59,51.59,0,0,1,19,19.2,53.55,53.55,0,0,1,7,27.17V96.19a9.79,9.79,0,1,1-19.58,0v-7.1a48.35,48.35,0,0,1-62.11,10.56,48.53,48.53,0,0,1-17.67-19.11,57.25,57.25,0,0,1-6.43-27.16,54.09,54.09,0,0,1,6.91-27.17A50.53,50.53,0,0,1,165.4,7a53.19,53.19,0,0,1,27-7,52.12,52.12,0,0,1,26.78,7m-9.4,77.57A33.32,33.32,0,0,0,222,71.71a37.93,37.93,0,0,0,4.41-18.33A38.53,38.53,0,0,0,222,34.94,33.87,33.87,0,0,0,175,22a33.74,33.74,0,0,0-12.28,13,37.81,37.81,0,0,0-4.52,18.44,37.22,37.22,0,0,0,4.52,18.33A33.92,33.92,0,0,0,175,84.58a34.48,34.48,0,0,0,34.76,0"/><path class="cls-1" d="M359.9,3.46a9.79,9.79,0,0,1,2.59,7.1V96a9.77,9.77,0,0,1-2.59,7.1,9,9,0,0,1-6.82,2.69A9.51,9.51,0,0,1,343.29,96V59.9H284V96a9.66,9.66,0,0,1-2.69,7,9.4,9.4,0,0,1-7.1,2.78,9,9,0,0,1-6.82-2.69,9.81,9.81,0,0,1-2.59-7.1V10.56a9.83,9.83,0,0,1,2.59-7.1A9.05,9.05,0,0,1,274.17.77a9.61,9.61,0,0,1,7.1,2.69,9.57,9.57,0,0,1,2.69,7.1V42.62h59.33V10.56a9.44,9.44,0,0,1,2.78-7.1,9.71,9.71,0,0,1,7-2.69,9.05,9.05,0,0,1,6.82,2.69"/><path class="cls-1" d="M462.23,6.82a49,49,0,0,1,18.82,18.91,55.37,55.37,0,0,1,6.82,27.65V94.85a57.53,57.53,0,0,1-6.72,27.65,50,50,0,0,1-18.92,19.68,53.15,53.15,0,0,1-27.55,7.2A60.87,60.87,0,0,1,409,143.9a53.67,53.67,0,0,1-20-15.64,8.73,8.73,0,0,1-2.12-5.38q0-4,4-6.91a9.88,9.88,0,0,1,5.37-1.73,9.46,9.46,0,0,1,7.87,4,33.79,33.79,0,0,0,13.06,10.27,43,43,0,0,0,17.86,3.56,33.07,33.07,0,0,0,17.08-4.52,32.42,32.42,0,0,0,12.29-13.24q4.6-8.75,4.61-20.84V84.1a44.49,44.49,0,0,1-15.74,16.51,41.65,41.65,0,0,1-22.08,6,48,48,0,0,1-25.44-6.82,46.56,46.56,0,0,1-17.48-18.91,59,59,0,0,1-6.24-27.45q0-15.56,6.72-27.65A48.13,48.13,0,0,1,407.61,6.82,55,55,0,0,1,435.07,0a54,54,0,0,1,27.16,6.82m-9.6,77.85a31.75,31.75,0,0,0,12.1-12.77,38.93,38.93,0,0,0,4.32-18.52,39.58,39.58,0,0,0-4.32-18.63,31.67,31.67,0,0,0-12.1-12.86,35.77,35.77,0,0,0-35.13,0,32.29,32.29,0,0,0-12.19,12.86,38.81,38.81,0,0,0-4.42,18.63,38.18,38.18,0,0,0,4.42,18.52A32.37,32.37,0,0,0,417.5,84.67a35.77,35.77,0,0,0,35.13,0"/><path class="cls-1" d="M581.85,7a51.74,51.74,0,0,1,19,19.2,53.54,53.54,0,0,1,7,27.17V96.19a9.79,9.79,0,1,1-19.58,0v-7.1a48.35,48.35,0,0,1-62.11,10.56A48.53,48.53,0,0,1,508.5,80.54a57.25,57.25,0,0,1-6.43-27.16A54.19,54.19,0,0,1,509,26.21,50.48,50.48,0,0,1,528.09,7a53.16,53.16,0,0,1,27-7,52.16,52.16,0,0,1,26.79,7m-9.41,77.57a33.32,33.32,0,0,0,12.19-12.87,37.82,37.82,0,0,0,4.42-18.33,38.42,38.42,0,0,0-4.42-18.44,33.86,33.86,0,0,0-46.94-13,33.77,33.77,0,0,0-12.29,13,37.8,37.8,0,0,0-4.51,18.44,37.21,37.21,0,0,0,4.51,18.33,33.94,33.94,0,0,0,12.29,12.87,34.47,34.47,0,0,0,34.75,0"/><path class="cls-1" d="M707.22,7a50.48,50.48,0,0,1,19.11,19.2,54.19,54.19,0,0,1,6.91,27.17,57.25,57.25,0,0,1-6.44,27.16,48.43,48.43,0,0,1-17.66,19.11,46.83,46.83,0,0,1-25,6.91A47.23,47.23,0,0,1,647,89.09v51.84a10,10,0,0,1-16.8,7.1,9.41,9.41,0,0,1-2.79-7.1V53.38a53.55,53.55,0,0,1,7-27.17,51.59,51.59,0,0,1,19-19.2,52.15,52.15,0,0,1,26.78-7,53.19,53.19,0,0,1,27,7m-9.6,77.57a34,34,0,0,0,12.29-12.87,37.32,37.32,0,0,0,4.51-18.33,37.91,37.91,0,0,0-4.51-18.44,33.84,33.84,0,0,0-12.29-13,33.43,33.43,0,0,0-46.94,13,38.42,38.42,0,0,0-4.42,18.44,37.82,37.82,0,0,0,4.42,18.33,33.91,33.91,0,0,0,46.94,12.87"/><path class="cls-1" d="M846.51,3.26a9.59,9.59,0,0,1,2.69,7.11V96a9.66,9.66,0,0,1-2.69,7,10.34,10.34,0,0,1-14.11,0,9.53,9.53,0,0,1-2.78-7V93.89a42.66,42.66,0,0,1-14.59,9.5,48.42,48.42,0,0,1-18,3.36A48.91,48.91,0,0,1,773.17,101a40.52,40.52,0,0,1-16.51-16.8q-6-11-5.95-26.59V10.37a9.79,9.79,0,1,1,19.58,0V57.6q0,15.56,8.35,23.52t22.18,8a32.73,32.73,0,0,0,14.69-3.27A25.91,25.91,0,0,0,825.87,77a21.83,21.83,0,0,0,3.75-12.48V10.37a9.46,9.46,0,0,1,2.78-7.11,10.63,10.63,0,0,1,14.11,0"/><path class="cls-1" d="M969.3,3.46a9.83,9.83,0,0,1,2.59,7.1V96a9.81,9.81,0,0,1-2.59,7.1,9,9,0,0,1-6.82,2.69A9.51,9.51,0,0,1,952.69,96V59.9H893.36V96a9.7,9.7,0,0,1-2.69,7,9.4,9.4,0,0,1-7.1,2.78,9,9,0,0,1-6.82-2.69,9.77,9.77,0,0,1-2.59-7.1V10.56a9.79,9.79,0,0,1,2.59-7.1A9.05,9.05,0,0,1,883.57.77a9.61,9.61,0,0,1,7.1,2.69,9.61,9.61,0,0,1,2.69,7.1V42.62h59.33V10.56a9.44,9.44,0,0,1,2.78-7.1,9.7,9.7,0,0,1,7-2.69,9.07,9.07,0,0,1,6.82,2.69"/></g></g></svg>