<svg width="12" height="12" viewBox="0 0 12 12" fill="none" xmlns="http://www.w3.org/2000/svg">
<path d="M4.88575 10.1323C4.95685 10.3068 5.03002 10.3853 5.19329 10.4621C5.32277 10.5231 5.48463 10.5268 8.04784 10.5276C9.88608 10.5281 10.7964 10.5162 10.8617 10.4909C10.9932 10.44 11.1456 10.2881 11.2028 10.1512C11.2413 10.0589 11.25 9.61424 11.25 7.74826C11.25 5.53673 11.2477 5.4539 11.1822 5.32217C11.1449 5.24716 11.0638 5.14883 11.002 5.10365L10.8897 5.02152L8.08154 5.01211C5.29656 5.00279 5.27232 5.00331 5.14694 5.07556C5.07742 5.11563 4.98219 5.20576 4.93533 5.27584C4.85067 5.40245 4.85013 5.40839 4.85013 6.2138V7.02434L5.58792 7.15537C7.04267 7.41374 7.1088 7.43583 7.39103 7.7577C7.89063 8.32749 7.71764 9.26591 7.04998 9.60782C6.7133 9.78024 6.58499 9.77782 5.48552 9.57837C5.16518 9.52025 4.8873 9.4727 4.86802 9.4727C4.81181 9.4727 4.82557 9.98462 4.88575 10.1323Z" fill="white"/>
<path d="M1.33258 3.737C1.56066 3.97086 1.79168 4.10587 2.12202 4.19833C2.5187 4.30935 2.92035 4.26024 3.32711 4.05108C3.72639 3.84576 4.07801 3.3751 4.19422 2.89039C4.26426 2.59833 4.26412 2.41164 4.19366 2.12077C4.11118 1.78029 3.9644 1.50938 3.73487 1.27403C3.0531 0.574989 2.01584 0.57536 1.3336 1.27493C0.651436 1.97441 0.650998 3.0381 1.33258 3.737Z" fill="white"/>
<path d="M0.818389 5.66194C0.895743 5.40514 1.11595 5.07387 1.30989 4.92256C1.66885 4.64248 2.19196 4.53663 2.87505 4.60583C3.16931 4.63564 3.29939 4.66697 3.4712 4.74941C3.87466 4.94301 4.20293 5.37136 4.2834 5.80922C4.30256 5.91347 4.31824 6.19625 4.31824 6.43763V6.87651L4.03983 6.53839C3.88671 6.35243 3.75579 6.20028 3.74888 6.20028C3.7328 6.20028 4.28044 7.33593 4.31184 7.36769C4.32479 7.3808 4.83726 7.47986 5.45066 7.58782C6.06405 7.69579 6.63412 7.80266 6.71747 7.82532C7.26743 7.97478 7.41939 8.71846 6.98067 9.11344C6.86487 9.2177 6.67415 9.29614 6.53546 9.29656C6.43135 9.29682 3.6948 8.80573 3.56892 8.76414C3.325 8.68354 3.22799 8.54548 2.82163 7.70065C2.43318 6.89304 2.38799 6.80668 2.41677 6.92693C2.42533 6.96272 2.50896 7.37017 2.60261 7.83239C2.79379 8.77601 2.85173 8.92058 3.10464 9.08504C3.19788 9.14567 3.34752 9.20006 3.48768 9.22427C3.6142 9.24612 3.85283 9.28884 4.01797 9.31922L4.31824 9.37444L4.31809 11.25H0.750033C0.749567 5.97075 0.753208 5.87833 0.818389 5.66194Z" fill="white"/>
</svg>
