<svg width="11" height="12" viewBox="0 0 11 12" fill="none" xmlns="http://www.w3.org/2000/svg">
<path d="M5 11.25C2.42267 11.25 0.333336 9.16065 0.333336 6.58332C0.333336 4.00599 2.42267 1.91666 5 1.91666C7.57733 1.91666 9.66667 4.00599 9.66667 6.58332C9.66378 9.15945 7.57613 11.2471 5 11.25ZM5 3.08332C3.06701 3.08332 1.5 4.65033 1.5 6.58332C1.5 8.51632 3.06701 10.0833 5 10.0833C6.933 10.0833 8.5 8.51632 8.5 6.58332C8.49775 4.65126 6.93207 3.08557 5 3.08332ZM5.58334 7.16666H4.41667V4.24999H5.58334V7.16666ZM9.25425 3.49574L8.08759 2.32907L8.91242 1.50424L10.0791 2.67091L9.25484 3.49516L9.25425 3.49574ZM6.75 1.33332H3.25V0.166656H6.75V1.33332Z" fill="white"/>
</svg>
