<svg width="12" height="14" viewBox="0 0 12 14" fill="none" xmlns="http://www.w3.org/2000/svg">
<path d="M10.7282 5.25H9.8713V4.08332C9.8713 1.83176 8.07747 0 5.87246 0C3.66745 0 1.87362 1.83176 1.87362 4.08332V5.25H1.01672C0.858837 5.25 0.731079 5.38046 0.731079 5.54168V12.8334C0.731079 13.4768 1.24348 14 1.87362 14H9.87133C10.5014 14 11.0138 13.4768 11.0138 12.8333V5.54168C11.0138 5.38046 10.8861 5.25 10.7282 5.25ZM6.7277 11.3428C6.73661 11.4251 6.71069 11.5077 6.65657 11.5696C6.60246 11.6313 6.52491 11.6667 6.44374 11.6667H5.3012C5.22004 11.6667 5.14249 11.6313 5.08837 11.5696C5.03425 11.5078 5.00831 11.4251 5.01725 11.3428L5.19744 9.68825C4.90484 9.47092 4.72995 9.12712 4.72995 8.75C4.72995 8.10657 5.24235 7.58332 5.87249 7.58332C6.50263 7.58332 7.01503 8.10655 7.01503 8.75C7.01503 9.12712 6.84014 9.47092 6.54753 9.68825L6.7277 11.3428ZM8.15751 5.25H3.58741V4.08332C3.58741 2.79675 4.6125 1.75 5.87246 1.75C7.13242 1.75 8.15751 2.79675 8.15751 4.08332V5.25Z" fill="#3D3D3D"/>
</svg>
