<svg width="10" height="10" viewBox="0 0 10 10" fill="none" xmlns="http://www.w3.org/2000/svg">
<path d="M9.72758 7.33899L8.33205 5.94346C7.83365 5.44506 6.98636 5.64444 6.787 6.29234C6.63748 6.74093 6.13908 6.99013 5.69051 6.89043C4.69371 6.64123 3.34802 5.34538 3.09881 4.29873C2.94929 3.85015 3.24833 3.35174 3.6969 3.20224C4.34482 3.00288 4.54418 2.1556 4.04578 1.65719L2.65025 0.261662C2.25153 -0.0872206 1.65344 -0.0872206 1.30456 0.261662L0.357595 1.20863C-0.589372 2.20544 0.457276 4.84697 2.79977 7.18947C5.14227 9.53197 7.78381 10.6285 8.78061 9.63165L9.72758 8.68468C10.0765 8.28596 10.0765 7.68787 9.72758 7.33899Z" fill="#333333"/>
</svg>
