<svg width="14" height="14" viewBox="0 0 14 14" fill="none" xmlns="http://www.w3.org/2000/svg">
<g clip-path="url(#clip0)">
<path d="M6.87242 0C4.87909 0 3.25739 1.65596 3.25739 3.69141C3.25739 5.72685 4.87909 7.38281 6.87242 7.38281C8.86575 7.38281 10.4875 5.72685 10.4875 3.69141C10.4875 1.65596 8.86575 0 6.87242 0Z" fill="#3D3D3D"/>
<path d="M11.3703 9.79439C10.3806 8.76824 9.06851 8.20312 7.67581 8.20312H6.06913C4.67646 8.20312 3.36439 8.76824 2.37467 9.79439C1.3898 10.8155 0.847412 12.1634 0.847412 13.5898C0.847412 13.8164 1.02725 14 1.24908 14H12.4959C12.7177 14 12.8975 13.8164 12.8975 13.5898C12.8975 12.1634 12.3551 10.8155 11.3703 9.79439Z" fill="#3D3D3D"/>
</g>
<defs>
<clipPath id="clip0">
<rect width="13.7104" height="14" fill="white" transform="translate(0.0172729)"/>
</clipPath>
</defs>
</svg>
